<?xml version="1.0" encoding="utf-8"?>
<!-- Generator: Adobe Illustrator 27.5.0, SVG Export Plug-In . SVG Version: 6.00 Build 0)  -->
<svg version="1.1" xmlns="http://www.w3.org/2000/svg" xmlns:xlink="http://www.w3.org/1999/xlink" x="0px" y="0px"
	 viewBox="0 0 800 800" style="enable-background:new 0 0 800 800;" xml:space="preserve">
<g id="background">
	<g>
		<polygon style="fill:#F2F2F2;" points="549.255,0 0,549.255 0,530.915 530.915,0 		"/>
		<polygon style="fill:#F2F2F2;" points="571.856,0 0,571.856 0,553.517 553.517,0 		"/>
		<polygon style="fill:#F2F2F2;" points="639.66,0 0,639.66 0,621.32 621.32,0 		"/>
		<polygon style="fill:#F2F2F2;" points="594.457,0 0,594.457 0,576.117 576.117,0 		"/>
		<polygon style="fill:#F2F2F2;" points="752.666,0 0,752.667 0,734.327 734.326,0 		"/>
		<polygon style="fill:#F2F2F2;" points="707.464,0 0,707.464 0,689.124 689.124,0 		"/>
		<polygon style="fill:#F2F2F2;" points="775.268,0 0,775.268 0,756.928 756.928,0 		"/>
		<polygon style="fill:#F2F2F2;" points="730.065,0 0,730.065 0,711.726 711.726,0 		"/>
		<polygon style="fill:#F2F2F2;" points="617.059,0 0,617.059 0,598.719 598.719,0 		"/>
		<polygon style="fill:#F2F2F2;" points="684.862,0 0,684.862 0,666.523 666.522,0 		"/>
		<polygon style="fill:#F2F2F2;" points="526.653,0 0,526.653 0,508.314 508.313,0 		"/>
		<polygon style="fill:#F2F2F2;" points="662.262,0 0,662.262 0,643.922 643.922,0 		"/>
		<polygon style="fill:#F2F2F2;" points="345.843,0 0,345.843 0,327.503 327.503,0 		"/>
		<polygon style="fill:#F2F2F2;" points="165.032,0 0,165.032 0,146.692 146.692,0 		"/>
		<polygon style="fill:#F2F2F2;" points="142.431,0 0,142.431 0,124.091 124.091,0 		"/>
		<polygon style="fill:#F2F2F2;" points="119.83,0 0,119.83 0,101.49 101.49,0 		"/>
		<polygon style="fill:#F2F2F2;" points="210.234,0 0,210.234 0,191.895 191.895,0 		"/>
		<polygon style="fill:#F2F2F2;" points="187.633,0 0,187.633 0,169.294 169.293,0 		"/>
		<polygon style="fill:#F2F2F2;" points="52.025,0 0,52.025 0,33.686 33.686,0 		"/>
		<polygon style="fill:#F2F2F2;" points="97.229,0 0,97.228 0,78.888 78.889,0 		"/>
		<polygon style="fill:#F2F2F2;" points="11.084,0 29.424,0 0,29.424 0,11.085 		"/>
		<polygon style="fill:#F2F2F2;" points="0,0 6.822,0 0,6.823 		"/>
		<polygon style="fill:#F2F2F2;" points="232.836,0 0,232.836 0,214.496 214.496,0 		"/>
		<polygon style="fill:#F2F2F2;" points="74.627,0 0,74.627 0,56.287 56.287,0 		"/>
		<polygon style="fill:#F2F2F2;" points="300.641,0 0,300.641 0,282.301 282.301,0 		"/>
		<polygon style="fill:#F2F2F2;" points="436.248,0 0,436.248 0,417.908 417.908,0 		"/>
		<polygon style="fill:#F2F2F2;" points="413.646,0 0,413.647 0,395.307 395.307,0 		"/>
		<polygon style="fill:#F2F2F2;" points="458.85,0 0,458.85 0,440.51 440.51,0 		"/>
		<polygon style="fill:#F2F2F2;" points="391.045,0 0,391.045 0,372.705 372.705,0 		"/>
		<polygon style="fill:#F2F2F2;" points="481.451,0 0,481.451 0,463.111 463.111,0 		"/>
		<polygon style="fill:#F2F2F2;" points="255.438,0 0,255.438 0,237.098 237.098,0 		"/>
		<polygon style="fill:#F2F2F2;" points="368.443,0 0,368.443 0,350.103 350.103,0 		"/>
		<polygon style="fill:#F2F2F2;" points="278.039,0 0,278.039 0,259.699 259.699,0 		"/>
		<polygon style="fill:#F2F2F2;" points="504.052,0 0,504.052 0,485.712 485.712,0 		"/>
		<polygon style="fill:#F2F2F2;" points="797.869,0 0,797.869 0,779.529 779.529,0 		"/>
		<polygon style="fill:#F2F2F2;" points="323.241,0 0,323.241 0,304.901 304.901,0 		"/>
		<polygon style="fill:#F2F2F2;" points="800,201.281 201.281,800 182.941,800 800,182.941 		"/>
		<polygon style="fill:#F2F2F2;" points="800,291.686 291.686,800 273.347,800 800,273.347 		"/>
		<polygon style="fill:#F2F2F2;" points="800,766.315 766.314,800 747.975,800 800,747.975 		"/>
		<polygon style="fill:#F2F2F2;" points="800,800 793.178,800 800,793.178 		"/>
		<polygon style="fill:#F2F2F2;" points="800,788.916 788.916,800 770.576,800 800,770.576 		"/>
		<polygon style="fill:#F2F2F2;" points="800,110.876 110.876,800 92.536,800 800,92.536 		"/>
		<polygon style="fill:#F2F2F2;" points="800,698.51 698.51,800 680.17,800 800,680.17 		"/>
		<polygon style="fill:#F2F2F2;" points="800,721.111 721.111,800 702.771,800 800,702.771 		"/>
		<polygon style="fill:#F2F2F2;" points="800,675.909 675.909,800 657.569,800 800,657.569 		"/>
		<polygon style="fill:#F2F2F2;" points="800,178.68 178.68,800 160.34,800 800,160.34 		"/>
		<polygon style="fill:#F2F2F2;" points="800,156.079 156.079,800 137.739,800 800,137.739 		"/>
		<polygon style="fill:#F2F2F2;" points="800,133.477 133.477,800 115.138,800 800,115.137 		"/>
		<polygon style="fill:#F2F2F2;" points="800,314.288 314.288,800 295.948,800 800,295.948 		"/>
		<polygon style="fill:#F2F2F2;" points="800,246.484 246.484,800 228.145,800 800,228.144 		"/>
		<polygon style="fill:#F2F2F2;" points="800,269.085 269.085,800 250.745,800 800,250.745 		"/>
		<polygon style="fill:#F2F2F2;" points="800,223.882 223.883,800 205.543,800 800,205.542 		"/>
		<polygon style="fill:#F2F2F2;" points="800,743.713 743.713,800 725.373,800 800,725.373 		"/>
		<polygon style="fill:#F2F2F2;" points="800,427.295 427.295,800 408.955,800 800,408.955 		"/>
		<polygon style="fill:#F2F2F2;" points="800,449.897 449.896,800 431.557,800 800,431.557 		"/>
		<polygon style="fill:#F2F2F2;" points="800,653.308 653.308,800 634.968,800 800,634.968 		"/>
		<polygon style="fill:#F2F2F2;" points="800,472.497 472.497,800 454.157,800 800,454.157 		"/>
		<polygon style="fill:#F2F2F2;" points="800,336.889 336.89,800 318.55,800 800,318.549 		"/>
		<polygon style="fill:#F2F2F2;" points="800,359.49 359.49,800 341.15,800 800,341.15 		"/>
		<polygon style="fill:#F2F2F2;" points="800,382.092 382.092,800 363.752,800 800,363.752 		"/>
		<polygon style="fill:#F2F2F2;" points="800,404.693 404.693,800 386.353,800 800,386.353 		"/>
		<polygon style="fill:#F2F2F2;" points="800,608.106 608.105,800 589.766,800 800,589.766 		"/>
		<polygon style="fill:#F2F2F2;" points="800,630.707 630.707,800 612.367,800 800,612.367 		"/>
		<polygon style="fill:#F2F2F2;" points="800,585.504 585.504,800 567.164,800 800,567.164 		"/>
		<polygon style="fill:#F2F2F2;" points="800,517.699 517.7,800 499.36,800 800,499.359 		"/>
		<polygon style="fill:#F2F2F2;" points="800,495.099 495.099,800 476.759,800 800,476.759 		"/>
		<polygon style="fill:#F2F2F2;" points="800,562.902 562.902,800 544.563,800 800,544.563 		"/>
		<polygon style="fill:#F2F2F2;" points="800,540.301 540.301,800 521.962,800 800,521.961 		"/>
		<polygon style="fill:#F2F2F2;" points="800,65.673 65.674,800 47.334,800 800,47.333 		"/>
		<polygon style="fill:#F2F2F2;" points="800,43.072 43.072,800 24.732,800 800,24.732 		"/>
		<polygon style="fill:#F2F2F2;" points="800,20.471 20.471,800 2.131,800 800,2.131 		"/>
		<polygon style="fill:#F2F2F2;" points="800,88.274 88.274,800 69.935,800 800,69.935 		"/>
	</g>
	<g>
		<path style="fill-rule:evenodd;clip-rule:evenodd;" d="M391.352,775.363c0.246-0.144,0.66-0.17,0.635-0.518
			c-0.018-0.346-0.252-1.029,0.433-1.264c0.69-0.232,0.302,0.205,0.065,0.506c-0.237,0.301-0.16,0.486-0.131,0.93
			c0.024,0.438-0.283,0.588-0.748,0.805C391.139,776.041,391.103,775.51,391.352,775.363"/>
		<path style="fill-rule:evenodd;clip-rule:evenodd;" d="M380.162,771.449c2.674-0.67,4.346,0.1,4.346,0.1l-0.143,0.771
			c0,0-1.953-0.131-3.505,0.1c-1.547,0.223-2.252,0.713-2.252,0.713l-0.336-0.768C378.272,772.365,379.006,771.738,380.162,771.449"
			/>
		<polygon style="fill-rule:evenodd;clip-rule:evenodd;" points="380.963,770.352 381.34,770.215 381.836,771.545 381.463,771.69 		
			"/>
		<path style="fill-rule:evenodd;clip-rule:evenodd;" d="M392.741,772.828c0.377-0.022,0.701,0.266,0.724,0.641
			c0.026,0.377-0.261,0.699-0.64,0.725c-0.378,0.023-0.702-0.266-0.725-0.637C392.076,773.178,392.363,772.857,392.741,772.828"/>
		<path style="fill-rule:evenodd;clip-rule:evenodd;" d="M369.26,775.414c0.375-0.025,0.701,0.262,0.727,0.637
			c0.021,0.375-0.264,0.693-0.645,0.719c-0.375,0.025-0.697-0.26-0.726-0.633C368.594,775.76,368.883,775.441,369.26,775.414"/>
		<path style="fill-rule:evenodd;clip-rule:evenodd;" d="M381.291,768.646c0.6-0.033,1.119,0.414,1.155,1.016
			c0.035,0.592-0.422,1.111-1.022,1.15c-0.603,0.041-1.113-0.412-1.154-1.014C380.228,769.199,380.686,768.684,381.291,768.646"/>
		<g>
			<path d="M397.796,776.676h0.685v-0.865c0-0.898,0.11-1.613,0.339-2.144c0.225-0.529,0.616-0.914,1.159-1.158
				c0.543-0.238,1.291-0.359,2.233-0.359c1.683,0,2.517,0.406,2.517,1.236c0,0.262-0.09,0.494-0.268,0.678
				c-0.17,0.191-0.379,0.285-0.616,0.285c-0.111,0-0.308-0.018-0.584-0.065c-0.263-0.041-0.502-0.066-0.691-0.066
				c-0.517,0-0.847,0.156-1.002,0.465c-0.14,0.299-0.216,0.736-0.216,1.309v0.686h0.701c1.096,0,1.639,0.324,1.639,0.99
				c0,0.465-0.139,0.762-0.432,0.893c-0.291,0.125-0.693,0.188-1.207,0.188h-0.701v7.607c0,0.565-0.133,0.996-0.41,1.289
				c-0.266,0.303-0.612,0.453-1.041,0.453c-0.409,0-0.743-0.15-1.019-0.453c-0.267-0.293-0.401-0.725-0.401-1.289v-7.607h-0.789
				c-0.433,0-0.756-0.092-0.991-0.287c-0.232-0.19-0.347-0.443-0.347-0.756C396.353,777.016,396.833,776.676,397.796,776.676"/>
			<path d="M407.194,783.953v2.4c0,0.578-0.147,1.014-0.416,1.305c-0.272,0.295-0.616,0.438-1.036,0.438
				c-0.423,0-0.761-0.143-1.024-0.445c-0.263-0.293-0.399-0.723-0.399-1.297v-7.996c0-1.291,0.466-1.939,1.396-1.939
				c0.479,0,0.82,0.152,1.033,0.451c0.209,0.307,0.323,0.75,0.349,1.34c0.342-0.59,0.692-1.033,1.053-1.34
				c0.365-0.299,0.845-0.451,1.447-0.451c0.608,0,1.189,0.152,1.756,0.451c0.571,0.307,0.855,0.709,0.855,1.201
				c0,0.354-0.123,0.643-0.36,0.869c-0.246,0.229-0.506,0.344-0.783,0.344c-0.11,0-0.364-0.066-0.767-0.199
				c-0.403-0.125-0.76-0.19-1.067-0.19c-0.42,0-0.765,0.109-1.026,0.328c-0.268,0.225-0.478,0.551-0.627,0.984
				c-0.142,0.436-0.242,0.953-0.302,1.551C407.218,782.361,407.194,783.09,407.194,783.953"/>
			<path d="M420.394,782.963h-5.619c0.011,0.654,0.138,1.232,0.394,1.727c0.257,0.496,0.601,0.871,1.022,1.127
				c0.427,0.252,0.892,0.377,1.402,0.377c0.346,0,0.659-0.041,0.944-0.125c0.28-0.074,0.558-0.205,0.824-0.377
				c0.268-0.172,0.51-0.352,0.733-0.553c0.226-0.195,0.519-0.463,0.873-0.799c0.153-0.125,0.362-0.189,0.633-0.189
				c0.295,0,0.531,0.08,0.717,0.246c0.185,0.16,0.272,0.385,0.272,0.684c0,0.26-0.099,0.561-0.296,0.908
				c-0.209,0.352-0.514,0.678-0.926,0.998c-0.414,0.316-0.931,0.588-1.547,0.797c-0.621,0.209-1.337,0.313-2.142,0.313
				c-1.849,0-3.281-0.521-4.302-1.576c-1.023-1.055-1.538-2.478-1.538-4.279c0-0.846,0.127-1.637,0.383-2.367
				c0.248-0.729,0.619-1.344,1.106-1.869c0.482-0.514,1.073-0.912,1.785-1.189c0.707-0.275,1.491-0.414,2.355-0.414
				c1.121,0,2.082,0.234,2.887,0.711c0.8,0.475,1.408,1.084,1.804,1.834c0.397,0.752,0.599,1.518,0.599,2.297
				c0,0.715-0.209,1.185-0.623,1.398C421.722,782.857,421.144,782.963,420.394,782.963 M414.774,781.332h5.207
				c-0.071-0.978-0.332-1.715-0.793-2.201c-0.461-0.486-1.061-0.727-1.815-0.727c-0.715,0-1.303,0.24-1.762,0.734
				C415.151,779.639,414.873,780.367,414.774,781.332"/>
			<path d="M432.333,782.963h-5.614c0.008,0.654,0.139,1.232,0.393,1.727c0.253,0.496,0.597,0.871,1.019,1.127
				c0.425,0.252,0.893,0.377,1.406,0.377c0.342,0,0.659-0.041,0.94-0.125c0.282-0.074,0.556-0.205,0.826-0.377
				c0.268-0.172,0.51-0.352,0.735-0.553c0.219-0.195,0.517-0.463,0.871-0.799c0.151-0.125,0.362-0.189,0.631-0.189
				c0.299,0,0.533,0.08,0.722,0.246c0.18,0.16,0.268,0.385,0.268,0.684c0,0.26-0.102,0.561-0.303,0.908
				c-0.197,0.352-0.506,0.678-0.922,0.998c-0.41,0.316-0.929,0.588-1.543,0.797c-0.617,0.209-1.339,0.313-2.146,0.313
				c-1.843,0-3.275-0.521-4.302-1.576c-1.022-1.055-1.535-2.478-1.535-4.279c0-0.846,0.126-1.637,0.382-2.367
				c0.25-0.729,0.618-1.344,1.103-1.869c0.481-0.514,1.077-0.912,1.789-1.189c0.706-0.275,1.493-0.414,2.354-0.414
				c1.12,0,2.081,0.234,2.896,0.711c0.799,0.475,1.399,1.084,1.795,1.834c0.396,0.752,0.603,1.518,0.603,2.297
				c0,0.715-0.211,1.185-0.621,1.398C433.663,782.857,433.083,782.963,432.333,782.963 M426.719,781.332h5.202
				c-0.067-0.978-0.336-1.715-0.791-2.201c-0.465-0.486-1.064-0.727-1.815-0.727c-0.717,0-1.301,0.24-1.765,0.734
				C427.094,779.639,426.81,780.367,426.719,781.332"/>
			<path d="M438.622,778.033v0.346c0.537-0.664,1.104-1.152,1.69-1.467c0.57-0.31,1.234-0.473,1.97-0.473
				c0.881,0,1.701,0.23,2.446,0.685c0.742,0.461,1.324,1.121,1.755,2.002c0.434,0.879,0.651,1.912,0.651,3.113
				c0,0.881-0.125,1.691-0.371,2.436c-0.248,0.738-0.597,1.359-1.028,1.857c-0.437,0.498-0.949,0.891-1.539,1.16
				c-0.599,0.269-1.229,0.402-1.914,0.402c-0.817,0-1.51-0.164-2.063-0.494c-0.56-0.322-1.088-0.815-1.597-1.449v4.311
				c0,1.262-0.463,1.893-1.377,1.893c-0.543,0-0.893-0.16-1.075-0.486c-0.169-0.33-0.259-0.799-0.259-1.428v-12.391
				c0-0.547,0.117-0.955,0.354-1.225c0.238-0.266,0.565-0.408,0.979-0.408c0.408,0,0.736,0.142,0.99,0.418
				C438.497,777.115,438.622,777.51,438.622,778.033 M444.251,782.205c0-0.758-0.116-1.406-0.35-1.947
				c-0.23-0.549-0.55-0.959-0.961-1.254c-0.404-0.291-0.863-0.435-1.363-0.435c-0.789,0-1.457,0.31-2,0.935
				c-0.545,0.625-0.817,1.541-0.817,2.758c0,1.139,0.271,2.027,0.811,2.668c0.541,0.631,1.205,0.947,2.006,0.947
				c0.478,0,0.92-0.141,1.328-0.412c0.409-0.279,0.735-0.693,0.977-1.25C444.129,783.662,444.251,782.988,444.251,782.205"/>
			<path d="M450.024,775.08c-0.401,0-0.739-0.125-1.021-0.363c-0.286-0.254-0.43-0.594-0.43-1.039c0-0.408,0.146-0.744,0.439-1.006
				c0.289-0.264,0.631-0.398,1.012-0.398c0.377,0,0.703,0.121,0.99,0.358c0.287,0.242,0.432,0.59,0.432,1.047
				c0,0.44-0.141,0.785-0.42,1.035C450.746,774.955,450.416,775.08,450.024,775.08 M451.446,778.051v8.303
				c0,0.574-0.137,1.004-0.409,1.297c-0.276,0.303-0.621,0.445-1.041,0.445c-0.425,0-0.759-0.15-1.028-0.453
				c-0.257-0.305-0.394-0.73-0.394-1.289v-8.223c0-0.561,0.137-0.99,0.394-1.273c0.27-0.297,0.604-0.439,1.028-0.439
				c0.42,0,0.765,0.142,1.041,0.439C451.31,777.141,451.446,777.545,451.446,778.051"/>
			<path d="M460.703,786.787l-2.529-4.17l-1.562,1.471v2.287c0,0.553-0.143,0.973-0.438,1.268c-0.283,0.303-0.625,0.453-1.002,0.453
				c-0.444,0-0.789-0.143-1.043-0.445c-0.248-0.293-0.379-0.723-0.379-1.297v-12.25c0-0.635,0.125-1.121,0.366-1.451
				c0.248-0.338,0.603-0.504,1.056-0.504c0.44,0,0.789,0.15,1.049,0.459c0.261,0.295,0.392,0.742,0.392,1.33v6.965l3.23-3.389
				c0.401-0.418,0.703-0.707,0.916-0.863c0.213-0.15,0.465-0.232,0.763-0.232c0.362,0,0.659,0.117,0.905,0.342
				c0.233,0.23,0.353,0.516,0.353,0.859c0,0.414-0.39,0.984-1.166,1.684l-1.524,1.395l2.942,4.633
				c0.213,0.344,0.375,0.604,0.47,0.783c0.094,0.176,0.144,0.352,0.144,0.512c0,0.457-0.125,0.813-0.375,1.08
				c-0.25,0.262-0.584,0.391-0.984,0.391c-0.35,0-0.62-0.088-0.809-0.283C461.284,787.619,461.022,787.279,460.703,786.787"/>
			<path d="M466.94,788.096c-0.436,0-0.807-0.139-1.123-0.42c-0.314-0.277-0.475-0.674-0.475-1.182c0-0.426,0.155-0.795,0.455-1.1
				c0.303-0.31,0.674-0.461,1.114-0.461s0.817,0.15,1.134,0.451c0.309,0.307,0.471,0.68,0.471,1.109
				c0,0.504-0.162,0.893-0.471,1.174C467.729,787.957,467.361,788.096,466.94,788.096"/>
			<path d="M481.222,784.539c0,0.361-0.108,0.742-0.321,1.146c-0.213,0.412-0.541,0.793-0.983,1.168
				c-0.435,0.365-0.986,0.66-1.654,0.887c-0.666,0.223-1.416,0.338-2.245,0.338c-1.779,0-3.166-0.518-4.162-1.553
				c-0.992-1.035-1.492-2.422-1.492-4.158c0-1.186,0.226-2.223,0.686-3.131c0.451-0.898,1.111-1.602,1.976-2.096
				c0.86-0.496,1.896-0.74,3.092-0.74c0.744,0,1.425,0.109,2.05,0.326c0.621,0.215,1.143,0.5,1.578,0.838
				c0.426,0.352,0.758,0.713,0.985,1.098c0.228,0.393,0.34,0.756,0.34,1.098c0,0.338-0.125,0.633-0.381,0.867
				c-0.259,0.242-0.571,0.363-0.929,0.363c-0.241,0-0.44-0.066-0.6-0.188c-0.158-0.125-0.335-0.322-0.531-0.596
				c-0.351-0.535-0.715-0.934-1.099-1.197c-0.379-0.272-0.866-0.402-1.455-0.402c-0.844,0-1.534,0.332-2.051,0.996
				c-0.519,0.658-0.78,1.572-0.78,2.717c0,0.537,0.071,1.041,0.204,1.49c0.127,0.449,0.322,0.836,0.576,1.158
				c0.254,0.316,0.556,0.555,0.912,0.723c0.36,0.172,0.754,0.252,1.18,0.252c0.578,0,1.07-0.137,1.478-0.404
				c0.418-0.266,0.777-0.674,1.095-1.219c0.174-0.32,0.358-0.574,0.56-0.754c0.203-0.18,0.453-0.275,0.748-0.275
				c0.354,0,0.647,0.135,0.873,0.4C481.103,783.953,481.222,784.246,481.222,784.539"/>
			<path d="M493.611,782.262c0,0.853-0.136,1.641-0.394,2.365c-0.274,0.723-0.656,1.346-1.164,1.857
				c-0.502,0.523-1.11,0.92-1.805,1.195c-0.708,0.277-1.496,0.416-2.371,0.416c-0.867,0-1.65-0.139-2.345-0.42
				c-0.69-0.277-1.297-0.682-1.804-1.201c-0.51-0.527-0.893-1.145-1.161-1.854c-0.255-0.715-0.392-1.5-0.392-2.359
				c0-0.869,0.142-1.668,0.399-2.393c0.267-0.727,0.651-1.34,1.151-1.848c0.5-0.512,1.097-0.91,1.806-1.186
				c0.711-0.275,1.494-0.418,2.345-0.418c0.87,0,1.659,0.142,2.371,0.422c0.704,0.281,1.307,0.684,1.817,1.193
				c0.508,0.529,0.891,1.143,1.153,1.855C493.477,780.607,493.611,781.396,493.611,782.262 M490.727,782.262
				c0-1.172-0.26-2.078-0.772-2.732c-0.514-0.658-1.207-0.984-2.077-0.984c-0.562,0-1.054,0.143-1.484,0.436
				c-0.43,0.293-0.752,0.717-0.987,1.291c-0.229,0.568-0.347,1.231-0.347,1.99c0,0.754,0.111,1.4,0.341,1.963
				c0.231,0.561,0.555,0.994,0.981,1.291c0.428,0.295,0.924,0.449,1.496,0.449c0.87,0,1.563-0.328,2.077-0.986
				C490.468,784.32,490.727,783.416,490.727,782.262"/>
			<path d="M504.56,782.471v3.818c0,0.603-0.132,1.049-0.406,1.353c-0.278,0.303-0.633,0.453-1.084,0.453
				c-0.435,0-0.791-0.15-1.051-0.453c-0.275-0.305-0.412-0.75-0.412-1.353v-4.576c0-0.723-0.024-1.287-0.072-1.69
				c-0.051-0.391-0.185-0.721-0.401-0.98c-0.219-0.254-0.564-0.385-1.03-0.385c-0.943,0-1.56,0.322-1.855,0.975
				c-0.295,0.639-0.45,1.568-0.45,2.779v3.877c0,0.594-0.136,1.045-0.401,1.35c-0.273,0.307-0.627,0.457-1.068,0.457
				c-0.434,0-0.793-0.15-1.071-0.457c-0.276-0.305-0.418-0.756-0.418-1.35v-8.219c0-0.535,0.129-0.949,0.373-1.231
				c0.256-0.279,0.582-0.422,0.987-0.422c0.394,0,0.72,0.137,0.986,0.396c0.262,0.26,0.391,0.625,0.391,1.09v0.271
				c0.504-0.59,1.035-1.035,1.601-1.311c0.572-0.285,1.197-0.426,1.897-0.426c0.72,0,1.34,0.146,1.857,0.43
				c0.521,0.293,0.945,0.731,1.283,1.307c0.489-0.586,1.008-1.025,1.561-1.311c0.555-0.279,1.168-0.426,1.84-0.426
				c0.783,0,1.465,0.162,2.033,0.467c0.564,0.305,0.985,0.754,1.267,1.318c0.249,0.525,0.368,1.344,0.368,2.457v5.608
				c0,0.603-0.137,1.049-0.409,1.353c-0.268,0.303-0.634,0.453-1.084,0.453c-0.435,0-0.789-0.15-1.064-0.457
				c-0.278-0.305-0.415-0.756-0.415-1.35v-4.832c0-0.617-0.029-1.109-0.08-1.484c-0.054-0.369-0.193-0.682-0.425-0.934
				c-0.233-0.25-0.588-0.381-1.055-0.381c-0.377,0-0.738,0.121-1.078,0.342c-0.34,0.223-0.604,0.529-0.799,0.898
				C504.669,780.387,504.56,781.242,504.56,782.471"/>
			<path style="fill-rule:evenodd;clip-rule:evenodd;" d="M377.912,789.102c0,0-1.568-0.252-3.099-1.924
				c-1.539-1.688-1.798-3.473-1.798-3.473s1.953,0.459,3.355,0.615c2.475,0.281,4.701,0.125,5.75,0.01
				c2.272-0.252,3.481-0.668,3.975-0.789c2.902-0.699,5.693-2.576,5.693-2.576s0.354,2.18-1.285,4.6
				c-0.641,0.943-1.916,2.029-3.383,2.777C382.094,790.486,377.912,789.102,377.912,789.102"/>
			<path style="fill-rule:evenodd;clip-rule:evenodd;" d="M389.781,776.705c-0.537-0.654-2.338-3.736-5.979-4.186
				c-0.929-0.111-5.853,0.082-8.806,2.813c-0.291,0.277-1.791,1.592-2.287,4.045c-0.389,1.894,0.246,4.027,0.246,4.027
				s3.275,0.684,5.742,0.619c3.912-0.096,5.883-0.443,7.928-1.063c3.011-0.91,5.146-2.438,5.146-2.438
				S390.324,777.363,389.781,776.705 M378.49,781.396c-1.654,0.106-3.078-1.139-3.18-2.789c-0.103-1.641,1.155-3.066,2.809-3.166
				c1.656-0.113,3.084,1.139,3.181,2.779C381.406,779.869,380.145,781.293,378.49,781.396 M386.943,779.273
				c-1.041,0.059-1.938-0.725-2.004-1.76c-0.064-1.033,0.73-1.93,1.77-1.992c1.039-0.07,1.941,0.719,2.004,1.75
				C388.779,778.309,387.982,779.205,386.943,779.273"/>
			<path style="fill-rule:evenodd;clip-rule:evenodd;" d="M388.367,774.57l0.951-1.141c0,0,1.313,0.648,2.159,1.863
				c0.838,1.213,1.387,2.322,1.387,2.322l-1.569,0.953c0,0-0.485-1.17-1.217-2.109C389.351,775.525,388.367,774.57,388.367,774.57"
				/>
			<path style="fill-rule:evenodd;clip-rule:evenodd;" d="M373.91,776.065c0,0-1.101,1.279-1.383,2.433
				c-0.277,1.16-0.222,2.555-0.222,2.555l-1.628-0.56c0,0-0.094-1.604,0.648-2.896c0.823-1.439,1.879-2.08,1.879-2.08
				L373.91,776.065z"/>
			<path style="fill-rule:evenodd;clip-rule:evenodd;" d="M371.512,777.519c-0.267-0.172-0.291-0.584-0.5-0.853
				c-0.209-0.277-0.263-0.111-0.74-0.111c-0.478,0-0.492-0.227-0.627-0.344c-0.137-0.121-0.201,0.365-0.201,0.365
				s0.088,0.406,0.602,0.436c0.51,0.029,0.498-0.221,0.717,0.238c0.221,0.465,0.656,0.816,0.656,0.816
				S371.779,777.695,371.512,777.519"/>
			<path d="M295.867,786.516c0,0.672-0.422,1.113-1.008,1.113c-0.553,0-0.875-0.301-1.002-0.836
				c-0.377,0.615-1.154,0.916-1.838,0.916c-2.021,0-3.302-1.871-3.302-3.769c0-1.957,1.072-3.975,3.234-3.975
				c0.695,0,1.377,0.242,1.906,0.699v-2.734c0-0.668,0.418-1.109,1.002-1.109c0.586,0,1.008,0.441,1.008,1.109V786.516z
				 M292.285,781.809c-1.045,0-1.562,1.094-1.562,2.043c0,0.934,0.517,2.025,1.562,2.025c1.098,0,1.572-1.115,1.572-2.096
				C293.856,782.809,293.356,781.809,292.285,781.809"/>
			<path d="M298.621,784.51c0.144,0.984,0.963,1.449,1.902,1.449c1.027,0,1.736-0.805,2.27-0.805c0.429,0,0.816,0.426,0.816,0.865
				c0,0.863-1.779,1.69-3.272,1.69c-2.259,0-3.761-1.641-3.761-3.857c0-2.035,1.476-3.887,3.593-3.887
				c2.174,0,3.61,1.977,3.61,3.652c0,0.598-0.266,0.893-0.877,0.893H298.621z M301.773,783.17c-0.109-0.879-0.668-1.529-1.604-1.529
				c-0.89,0-1.492,0.68-1.587,1.529H301.773z"/>
			<path d="M308.714,782.307c-0.377,0-1.143-0.59-1.799-0.59c-0.361,0-0.683,0.17-0.683,0.565c0,0.933,3.484,0.793,3.484,3.078
				c0,1.336-1.127,2.35-2.859,2.35c-1.127,0-2.797-0.635-2.797-1.541c0-0.305,0.304-0.887,0.861-0.887
				c0.781,0,1.129,0.678,2.074,0.678c0.615,0,0.797-0.197,0.797-0.574c0-0.92-3.482-0.779-3.482-3.078
				c0-1.392,1.129-2.342,2.718-2.342c0.987,0,2.506,0.461,2.506,1.453C309.534,781.873,309.188,782.307,308.714,782.307"/>
			<path d="M312.531,778.141c0,0.629-0.5,1.158-1.129,1.158c-0.6,0-1.129-0.545-1.129-1.158c0-0.57,0.529-1.1,1.129-1.1
				C312,777.041,312.531,777.553,312.531,778.141 M310.398,781.168c0-0.67,0.418-1.119,1.004-1.119c0.584,0,1.002,0.449,1.002,1.119
				v5.348c0,0.674-0.418,1.113-1.002,1.113c-0.586,0-1.004-0.439-1.004-1.113V781.168z"/>
			<path d="M320.376,786.961c0,2.412-1.576,3.629-3.861,3.629c-0.821,0-3.164-0.408-3.164-1.508c0-0.375,0.418-0.879,0.812-0.879
				c0.639,0,1.35,0.623,2.506,0.623c0.978,0,1.699-0.563,1.699-1.588v-0.473h-0.027c-0.416,0.613-1.102,0.943-2.02,0.943
				c-2.103,0-3.093-1.846-3.093-3.842c0-2.019,1.277-3.902,3.3-3.902c0.686,0,1.461,0.307,1.84,0.918
				c0.127-0.525,0.445-0.834,1.004-0.834c0.584,0,1.004,0.449,1.004,1.119V786.961z M316.792,781.809
				c-1.043,0-1.557,1.084-1.557,2.018c0,1.074,0.514,2.051,1.557,2.051c1.072,0,1.576-1.008,1.576-1.984
				C318.369,782.922,317.896,781.809,316.792,781.809"/>
			<path d="M321.519,781.168c0-0.67,0.416-1.119,1.002-1.119c0.514,0,0.852,0.277,0.918,0.744c0.393-0.547,0.988-0.828,1.937-0.828
				c1.575,0,2.745,1.004,2.745,2.701v3.85c0,0.674-0.413,1.113-1,1.113c-0.582,0-1.006-0.439-1.006-1.113v-3.496
				c0-0.934-0.582-1.379-1.309-1.379c-0.824,0-1.281,0.6-1.281,1.379v3.496c0,0.674-0.42,1.113-1.004,1.113
				c-0.586,0-1.002-0.439-1.002-1.113V781.168z"/>
			<path d="M330.881,784.51c0.14,0.984,0.961,1.449,1.896,1.449c1.033,0,1.742-0.805,2.27-0.805c0.433,0,0.826,0.426,0.826,0.865
				c0,0.863-1.787,1.69-3.278,1.69c-2.259,0-3.761-1.641-3.761-3.857c0-2.035,1.476-3.887,3.593-3.887
				c2.176,0,3.61,1.977,3.61,3.652c0,0.598-0.266,0.893-0.877,0.893H330.881z M334.031,783.17c-0.111-0.879-0.67-1.529-1.604-1.529
				c-0.892,0-1.492,0.68-1.587,1.529H334.031z"/>
			<path d="M343.603,786.516c0,0.672-0.418,1.113-1.006,1.113c-0.554,0-0.871-0.301-1-0.836c-0.379,0.615-1.156,0.916-1.84,0.916
				c-2.019,0-3.3-1.871-3.3-3.769c0-1.957,1.072-3.975,3.234-3.975c0.693,0,1.377,0.242,1.906,0.699v-2.734
				c0-0.668,0.418-1.109,1-1.109c0.588,0,1.006,0.441,1.006,1.109V786.516z M340.023,781.809c-1.045,0-1.561,1.094-1.561,2.043
				c0,0.934,0.516,2.025,1.561,2.025c1.098,0,1.574-1.115,1.574-2.096C341.597,782.809,341.095,781.809,340.023,781.809"/>
			<path d="M348.478,777.93c0-0.668,0.422-1.109,1.008-1.109c0.586,0,1.002,0.441,1.002,1.109v2.734
				c0.531-0.457,1.211-0.699,1.908-0.699c2.16,0,3.232,2.018,3.232,3.977c0,1.896-1.277,3.768-3.302,3.768
				c-0.682,0-1.463-0.301-1.838-0.916c-0.127,0.535-0.446,0.836-1.002,0.836c-0.586,0-1.008-0.439-1.008-1.113V777.93z
				 M352.062,785.877c1.045,0,1.559-1.092,1.559-2.025c0-0.949-0.514-2.043-1.559-2.043c-1.072,0-1.574,1-1.574,1.973
				C350.488,784.762,350.964,785.877,352.062,785.877"/>
			<path d="M355.978,781.428c-0.057-0.15-0.1-0.307-0.1-0.514c0-0.506,0.53-0.865,0.95-0.865c0.484,0,0.834,0.268,1.004,0.709
				l1.375,3.781l1.48-3.781c0.168-0.441,0.514-0.709,1.004-0.709c0.419,0,0.945,0.359,0.945,0.865c0,0.207-0.026,0.363-0.096,0.514
				l-3.359,8.363c-0.162,0.416-0.473,0.799-0.947,0.799c-0.682,0-1.043-0.438-1.043-0.863c0-0.203,0.057-0.408,0.121-0.59
				l0.881-2.176L355.978,781.428z"/>
		</g>
	</g>
</g>
<g id="objects">
	<g>
		<polygon style="fill-rule:evenodd;clip-rule:evenodd;fill:#FFFFFF;stroke:#000000;stroke-width:3;stroke-miterlimit:10;" points="
			487.5,747.521 398,712.521 311.5,747.521 311.5,515.5 487.5,515.5 		"/>
		<polygon style="fill-rule:evenodd;clip-rule:evenodd;fill:#FFFFFF;stroke:#000000;stroke-width:3;stroke-miterlimit:10;" points="
			400,29.478 491.93,68.094 588.998,90.888 640.673,176.164 705.807,251.659 697.488,351.022 705.807,450.385 640.673,525.881 
			588.998,611.156 491.93,633.949 400,672.565 308.07,633.949 211.001,611.156 159.327,525.881 94.193,450.385 102.512,351.022 
			94.193,251.659 159.327,176.164 211.001,90.887 308.07,68.094 		"/>
		
			<ellipse transform="matrix(0.7071 -0.7071 0.7071 0.7071 -130.9309 385.6042)" style="fill-rule:evenodd;clip-rule:evenodd;" cx="400" cy="350.85" rx="271" ry="271"/>
		<g>
			
				<ellipse transform="matrix(0.7071 -0.7071 0.7071 0.7071 -130.931 385.6042)" style="fill:none;stroke:#FFFFFF;stroke-width:6;stroke-miterlimit:10;stroke-dasharray:20.2151,20.2151;" cx="400" cy="350.85" rx="257.376" ry="257.376"/>
		</g>
		<g>
			
				<ellipse transform="matrix(0.7071 -0.7071 0.7071 0.7071 -131.0526 385.6544)" style="fill-rule:evenodd;clip-rule:evenodd;fill:#FFFFFF;stroke:#000000;stroke-width:5;stroke-miterlimit:10;" cx="400" cy="351.022" rx="226.688" ry="226.688"/>
			
				<circle style="fill-rule:evenodd;clip-rule:evenodd;fill:#FFFFFF;stroke:#000000;stroke-width:5;stroke-miterlimit:10;" cx="400" cy="351.022" r="189.687"/>
			<g>
				<path id="SVGID_x5F_1_x5F_" style="fill-rule:evenodd;clip-rule:evenodd;fill:none;" d="M192.147,351.194
					c0-114.794,93.059-207.853,207.853-207.853c114.793,0,207.852,93.059,207.852,207.853"/>
				<text>				<textPath  xlink:href="#SVGID_x5F_1_x5F_" startOffset="0%">
<tspan  style="font-family:'CollegeBold'; font-size:20.5453px; letter-spacing:100;"> PHYSICAL </tspan><tspan  style="font-family:'Myriad-Roman'; font-size:20.5453px; letter-spacing:100;">·</tspan><tspan  style="font-family:'CollegeBold'; font-size:20.5453px; letter-spacing:100;"> FITNESS TRAINING </tspan><tspan  style="font-family:'Myriad-Roman'; font-size:20.5453px; letter-spacing:100;">·</tspan><tspan  style="font-family:'CollegeBold'; font-size:20.5453px; letter-spacing:100;"> EXERCISE </tspan><tspan  style="font-family:'Myriad-Roman'; font-size:20.5453px; letter-spacing:100;">·</tspan><tspan  style="font-family:'CollegeBold'; font-size:20.5453px; letter-spacing:100;"> HEALTH</tspan>				</textPath>
</text>
				
					<path id="SVGID_x5F_00000093858069107751327990000004825681018669184435_x5F_" style="fill-rule:evenodd;clip-rule:evenodd;fill:none;" d="
					M607.852,350.85c0,114.794-93.059,207.851-207.852,207.851c-114.794,0-207.853-93.059-207.853-207.852"/>
				<text>				<textPath  xlink:href="#SVGID_x5F_00000093858069107751327990000004825681018669184435_x5F_" startOffset="0%">
<tspan  style="font-family:'Myriad-Roman'; font-size:20.5453px; letter-spacing:100;">·</tspan><tspan  style="font-family:'CollegeBold'; font-size:20.5453px; letter-spacing:100;"> PHYSICAL </tspan><tspan  style="font-family:'Myriad-Roman'; font-size:20.5453px; letter-spacing:100;">·</tspan><tspan  style="font-family:'CollegeBold'; font-size:20.5453px; letter-spacing:100;"> FITNESS TRAINING </tspan><tspan  style="font-family:'Myriad-Roman'; font-size:20.5453px; letter-spacing:100;">·</tspan><tspan  style="font-family:'CollegeBold'; font-size:20.5453px; letter-spacing:100;"> EXERCISE </tspan><tspan  style="font-family:'Myriad-Roman'; font-size:20.5453px; letter-spacing:100;">·</tspan><tspan  style="font-family:'CollegeBold'; font-size:20.5453px; letter-spacing:100;"> HEALTH </tspan><tspan  style="font-family:'Myriad-Roman'; font-size:20.5453px; letter-spacing:100;">·</tspan>				</textPath>
</text>
			</g>
			<circle style="fill-rule:evenodd;clip-rule:evenodd;" cx="400" cy="351.022" r="189.687"/>
			<g>
				<rect x="260.841" y="373.621" style="fill-rule:evenodd;clip-rule:evenodd;fill:none;" width="278.317" height="42.868"/>
				<g>
					<polygon style="fill-rule:evenodd;clip-rule:evenodd;fill:#808080;" points="336,472.131 302.939,482.404 311.449,464.202 
						302.838,446 336,446 					"/>
					<polygon style="fill-rule:evenodd;clip-rule:evenodd;fill:#808080;" points="464,472.131 497.274,482.404 488.871,464.202 
						497.59,446 464,446 					"/>
					<rect x="320" y="428" style="fill-rule:evenodd;clip-rule:evenodd;fill:#FFFFFF;" width="161" height="35"/>
					<rect x="336.172" y="433.631" style="fill-rule:evenodd;clip-rule:evenodd;fill:none;" width="126.6" height="25.217"/>
					<text transform="matrix(1 0 0 1 336.1724 457.9429)" style="font-family:'College'; font-size:34.2422px; letter-spacing:3;">SPORT</text>
					<polygon style="fill-rule:evenodd;clip-rule:evenodd;fill:#4D4D4D;" points="319.53,463 336,472.131 336,463 					"/>
					<polygon style="fill-rule:evenodd;clip-rule:evenodd;fill:#4D4D4D;" points="481,463 464.204,472.131 464.063,463.063 					"/>
				</g>
				<polygon style="fill-rule:evenodd;clip-rule:evenodd;fill:#FFFFFF;" points="399.9,477.813 404.51,492 419.43,492 
					407.359,501.157 411.971,515.539 399.9,506.866 387.83,515.685 392.44,501.129 380.37,492 395.289,492 				"/>
				<g>
					<g>
						<g>
							<g>
								<g>
									<path style="fill-rule:evenodd;clip-rule:evenodd;stroke:#FFFFFF;stroke-width:2;stroke-miterlimit:10;" d="
										M326.408,319.751c-0.584,0.584-2.509,2.508-3.092,3.092c-1.388,1.386,3.255,8.283,9.816,14.851
										c6.557,6.565,13.452,11.215,14.838,9.828c0.584-0.583,2.51-2.509,3.093-3.091c1.386-1.387-3.256-8.287-9.813-14.85
										C334.689,323.014,327.796,318.364,326.408,319.751z"/>
									<g>
										<path style="fill-rule:evenodd;clip-rule:evenodd;stroke:#FFFFFF;stroke-width:1.5;stroke-miterlimit:10;" d="
											M341.35,329.586c6.687,6.687,10.961,13.255,9.55,14.667c-1.414,1.414-7.982-2.861-14.668-9.547
											c-6.688-6.687-10.961-13.255-9.547-14.668C328.097,318.625,334.663,322.9,341.35,329.586z"/>
									</g>
								</g>
								<g>
									<path style="fill-rule:evenodd;clip-rule:evenodd;stroke:#FFFFFF;stroke-width:2;stroke-miterlimit:10;" d="
										M327.491,309.419c-0.803,0.802-3.446,3.446-4.249,4.248c-1.906,1.907,4.484,11.394,13.499,20.418
										c9.012,9.023,18.496,15.423,20.401,13.517c0.802-0.801,3.447-3.446,4.248-4.248c1.906-1.906-4.481-11.396-13.496-20.417
										C338.88,313.912,329.396,307.513,327.491,309.419z"/>
									<g>
										<path style="fill-rule:evenodd;clip-rule:evenodd;stroke:#FFFFFF;stroke-width:1.5;stroke-miterlimit:10;" d="
											M348.02,322.93c9.188,9.189,15.063,18.214,13.121,20.155c-1.942,1.942-10.968-3.932-20.156-13.121
											c-9.19-9.188-15.062-18.211-13.119-20.154C329.807,307.869,338.83,313.742,348.02,322.93z"/>
									</g>
								</g>
								<g>
									<path style="fill-rule:evenodd;clip-rule:evenodd;stroke:#FFFFFF;stroke-width:2;stroke-miterlimit:10;" d="
										M331.478,301.32c-0.942,0.942-4.055,4.054-4.997,4.997c-2.242,2.242,4.597,12.726,15.199,23.339
										c10.603,10.614,21.082,17.465,23.324,15.223c0.942-0.942,4.054-4.054,4.997-4.997c2.241-2.242-4.597-12.725-15.2-23.34
										C344.199,305.929,333.722,299.077,331.478,301.32z"/>
									<g>
										<path style="fill-rule:evenodd;clip-rule:evenodd;stroke:#FFFFFF;stroke-width:1.5;stroke-miterlimit:10;" d="
											M354.904,316.491c10.658,10.657,17.445,21.15,15.16,23.435c-2.284,2.284-12.777-4.503-23.435-15.161
											c-10.658-10.658-17.445-21.151-15.161-23.435C333.754,299.044,344.246,305.833,354.904,316.491z"/>
									</g>
								</g>
								<g>
									<g>
										<path style="fill-rule:evenodd;clip-rule:evenodd;stroke:#FFFFFF;stroke-width:1.5;stroke-miterlimit:10;" d="
											M352.412,318.525c-5.124-5.124-10.158-8.401-11.24-7.319c-1.083,1.083,2.192,6.118,7.317,11.242
											c5.125,5.125,10.158,8.4,11.241,7.316C360.813,328.683,357.537,323.65,352.412,318.525z"/>
									</g>
								</g>
								<g>
									<g>
										<path style="fill-rule:evenodd;clip-rule:evenodd;fill:none;stroke:#FFFFFF;stroke-width:1.5;stroke-miterlimit:10;" d="
											M356.618,328.895c0.85-0.85-1.723-4.803-5.748-8.827c-4.024-4.025-7.978-6.598-8.827-5.748"/>
									</g>
								</g>
							</g>
							<g>
								<g>
									<path style="fill-rule:evenodd;clip-rule:evenodd;stroke:#FFFFFF;stroke-width:2;stroke-miterlimit:10;" d="
										M448.709,197.452c0.583-0.584,2.509-2.508,3.091-3.093c1.388-1.386,8.283,3.255,14.852,9.817
										c6.565,6.557,11.215,13.452,9.828,14.838c-0.582,0.584-2.509,2.509-3.092,3.092c-1.386,1.387-8.285-3.256-14.849-9.814
										C451.972,205.732,447.32,198.839,448.709,197.452z"/>
									<g>
										<path style="fill-rule:evenodd;clip-rule:evenodd;stroke:#FFFFFF;stroke-width:1.5;stroke-miterlimit:10;" d="
											M458.544,212.393c6.687,6.687,13.254,10.961,14.666,9.549c1.414-1.413-2.86-7.981-9.547-14.667
											c-6.688-6.688-13.255-10.961-14.668-9.547C447.583,199.139,451.856,205.706,458.544,212.393z"/>
									</g>
								</g>
								<g>
									<path style="fill-rule:evenodd;clip-rule:evenodd;stroke:#FFFFFF;stroke-width:2;stroke-miterlimit:10;" d="
										M438.377,198.534c0.802-0.803,3.444-3.446,4.247-4.249c1.906-1.905,11.395,4.485,20.418,13.499
										c9.022,9.012,15.422,18.496,13.518,20.402c-0.802,0.802-3.447,3.447-4.249,4.248c-1.906,1.906-11.395-4.482-20.416-13.497
										C442.87,209.923,436.47,200.439,438.377,198.534z"/>
									<g>
										<path style="fill-rule:evenodd;clip-rule:evenodd;stroke:#FFFFFF;stroke-width:1.5;stroke-miterlimit:10;" d="
											M451.888,219.062c9.186,9.189,18.213,15.063,20.155,13.121c1.941-1.941-3.933-10.967-13.12-20.156
											c-9.189-9.189-18.214-15.061-20.155-13.119C436.825,200.85,442.698,209.874,451.888,219.062z"/>
									</g>
								</g>
								<g>
									<path style="fill-rule:evenodd;clip-rule:evenodd;stroke:#FFFFFF;stroke-width:2;stroke-miterlimit:10;" d="
										M430.276,202.521c0.943-0.942,4.055-4.054,4.997-4.997c2.243-2.243,12.728,4.596,23.34,15.2
										c10.614,10.603,17.465,21.081,15.224,23.324c-0.942,0.942-4.055,4.054-4.998,4.997
										c-2.241,2.242-12.726-4.597-23.339-15.201C434.885,215.242,428.034,204.764,430.276,202.521z"/>
									<g>
										<path style="fill-rule:evenodd;clip-rule:evenodd;stroke:#FFFFFF;stroke-width:1.5;stroke-miterlimit:10;" d="
											M445.447,225.947c10.658,10.658,21.151,17.446,23.434,15.16c2.286-2.284-4.503-12.777-15.159-23.434
											c-10.658-10.658-21.151-17.446-23.436-15.162C428.002,204.796,434.79,215.29,445.447,225.947z"/>
									</g>
								</g>
								<g>
									<g>
										<path style="fill-rule:evenodd;clip-rule:evenodd;stroke:#FFFFFF;stroke-width:1.5;stroke-miterlimit:10;" d="
											M447.482,223.455c-5.124-5.124-8.401-10.157-7.318-11.24c1.082-1.083,6.117,2.193,11.242,7.317
											c5.124,5.124,8.4,10.159,7.316,11.242C457.64,231.856,452.607,228.58,447.482,223.455z"/>
									</g>
								</g>
								<g>
									<g>
										<path style="fill-rule:evenodd;clip-rule:evenodd;fill:none;stroke:#FFFFFF;stroke-width:1.5;stroke-miterlimit:10;" d="
											M457.851,227.661c-0.85,0.85-4.802-1.723-8.826-5.747c-4.024-4.024-6.598-7.978-5.748-8.827"/>
									</g>
								</g>
							</g>
							<path style="fill-rule:evenodd;clip-rule:evenodd;stroke:#FFFFFF;stroke-width:1.5;stroke-miterlimit:10;" d="
								M451.42,224.047l-98.628,98.627c-1.227,1.227-5.665-3.213-4.439-4.439l98.627-98.626
								C448.207,218.383,452.645,222.822,451.42,224.047z"/>
						</g>
					</g>
					<g>
						<g>
							<g>
								<g>
									<path style="fill-rule:evenodd;clip-rule:evenodd;stroke:#FFFFFF;stroke-width:2;stroke-miterlimit:10;" d="
										M448.709,344.435c0.583,0.584,2.509,2.508,3.091,3.092c1.388,1.387,8.283-3.255,14.852-9.816
										c6.565-6.557,11.215-13.453,9.828-14.839c-0.582-0.583-2.509-2.509-3.091-3.092c-1.387-1.387-8.286,3.255-14.85,9.814
										C451.972,336.154,447.321,343.047,448.709,344.435z"/>
									<g>
										<path style="fill-rule:evenodd;clip-rule:evenodd;stroke:#FFFFFF;stroke-width:1.5;stroke-miterlimit:10;" d="
											M458.544,329.494c6.687-6.687,13.254-10.962,14.666-9.549c1.414,1.414-2.86,7.982-9.547,14.668
											c-6.688,6.687-13.255,10.96-14.668,9.546C447.583,342.747,451.856,336.181,458.544,329.494z"/>
									</g>
								</g>
								<g>
									<path style="fill-rule:evenodd;clip-rule:evenodd;stroke:#FFFFFF;stroke-width:2;stroke-miterlimit:10;" d="
										M438.377,343.353c0.802,0.803,3.444,3.446,4.247,4.249c1.906,1.906,11.395-4.484,20.418-13.499
										c9.022-9.012,15.422-18.497,13.518-20.402c-0.802-0.802-3.447-3.447-4.248-4.248c-1.907-1.907-11.396,4.482-20.417,13.497
										C442.87,331.963,436.47,341.447,438.377,343.353z"/>
									<g>
										<path style="fill-rule:evenodd;clip-rule:evenodd;stroke:#FFFFFF;stroke-width:1.5;stroke-miterlimit:10;" d="
											M451.888,322.824c9.188-9.188,18.213-15.063,20.156-13.12c1.94,1.941-3.934,10.967-13.121,20.155
											c-9.189,9.189-18.213,15.062-20.155,13.12C436.826,341.037,442.698,332.013,451.888,322.824z"/>
									</g>
								</g>
								<g>
									<path style="fill-rule:evenodd;clip-rule:evenodd;stroke:#FFFFFF;stroke-width:2;stroke-miterlimit:10;" d="
										M430.276,339.365c0.943,0.942,4.055,4.054,4.997,4.997c2.243,2.243,12.728-4.596,23.34-15.2
										c10.614-10.604,17.465-21.082,15.224-23.324c-0.942-0.943-4.055-4.054-4.998-4.997c-2.241-2.242-12.726,4.597-23.339,15.2
										C434.886,326.645,428.034,337.122,430.276,339.365z"/>
									<g>
										<path style="fill-rule:evenodd;clip-rule:evenodd;stroke:#FFFFFF;stroke-width:1.5;stroke-miterlimit:10;" d="
											M445.448,315.939c10.657-10.658,21.15-17.445,23.435-15.161c2.285,2.285-4.503,12.778-15.16,23.436
											c-10.657,10.658-21.151,17.445-23.436,15.161C428.002,337.089,434.79,326.597,445.448,315.939z"/>
									</g>
								</g>
								<g>
									<g>
										<path style="fill-rule:evenodd;clip-rule:evenodd;stroke:#FFFFFF;stroke-width:1.5;stroke-miterlimit:10;" d="
											M447.482,318.431c-5.124,5.124-8.4,10.158-7.318,11.241c1.082,1.083,6.117-2.193,11.242-7.317
											c5.124-5.125,8.4-10.159,7.316-11.242C457.64,310.03,452.607,313.306,447.482,318.431z"/>
									</g>
								</g>
								<g>
									<g>
										<path style="fill-rule:evenodd;clip-rule:evenodd;fill:none;stroke:#FFFFFF;stroke-width:1.5;stroke-miterlimit:10;" d="
											M457.851,314.225c-0.85-0.85-4.802,1.723-8.826,5.748c-4.024,4.024-6.598,7.978-5.748,8.828"/>
									</g>
								</g>
							</g>
							<g>
								<g>
									<path style="fill-rule:evenodd;clip-rule:evenodd;stroke:#FFFFFF;stroke-width:2;stroke-miterlimit:10;" d="
										M326.408,222.135c-0.584-0.583-2.508-2.508-3.092-3.092c-1.387-1.386,3.255-8.283,9.816-14.851
										c6.557-6.564,13.452-11.215,14.839-9.828c0.583,0.583,2.509,2.509,3.092,3.092c1.387,1.387-3.256,8.286-9.813,14.85
										C334.689,218.873,327.796,223.523,326.408,222.135z"/>
									<g>
										<path style="fill-rule:evenodd;clip-rule:evenodd;stroke:#FFFFFF;stroke-width:1.5;stroke-miterlimit:10;" d="
											M341.35,212.3c6.687-6.687,10.962-13.255,9.55-14.667c-1.414-1.414-7.981,2.861-14.668,9.547
											c-6.688,6.687-10.961,13.254-9.547,14.668C328.097,223.261,334.663,218.986,341.35,212.3z"/>
									</g>
								</g>
								<g>
									<path style="fill-rule:evenodd;clip-rule:evenodd;stroke:#FFFFFF;stroke-width:2;stroke-miterlimit:10;" d="
										M327.491,232.468c-0.803-0.802-3.446-3.446-4.249-4.249c-1.905-1.907,4.484-11.394,13.499-20.417
										c9.012-9.023,18.496-15.422,20.402-13.517c0.801,0.801,3.446,3.447,4.247,4.248c1.906,1.906-4.481,11.396-13.496,20.416
										C338.881,227.975,329.396,234.374,327.491,232.468z"/>
									<g>
										<path style="fill-rule:evenodd;clip-rule:evenodd;stroke:#FFFFFF;stroke-width:1.5;stroke-miterlimit:10;" d="
											M348.02,218.956c9.189-9.189,15.063-18.214,13.121-20.155c-1.942-1.942-10.968,3.932-20.156,13.121
											c-9.19,9.188-15.062,18.212-13.119,20.154C329.807,234.018,338.83,228.145,348.02,218.956z"/>
									</g>
								</g>
								<g>
									<path style="fill-rule:evenodd;clip-rule:evenodd;stroke:#FFFFFF;stroke-width:2;stroke-miterlimit:10;" d="
										M331.478,240.566c-0.941-0.942-4.054-4.054-4.996-4.998c-2.243-2.241,4.596-12.725,15.199-23.339
										c10.603-10.614,21.081-17.465,23.323-15.223c0.942,0.943,4.054,4.054,4.997,4.998c2.242,2.242-4.597,12.726-15.2,23.339
										C344.199,235.958,333.722,242.809,331.478,240.566z"/>
									<g>
										<path style="fill-rule:evenodd;clip-rule:evenodd;stroke:#FFFFFF;stroke-width:1.5;stroke-miterlimit:10;" d="
											M354.904,225.395c10.658-10.657,17.445-21.15,15.16-23.435c-2.284-2.284-12.776,4.503-23.435,15.16
											c-10.657,10.659-17.445,21.152-15.161,23.436C333.754,242.842,344.246,236.053,354.904,225.395z"/>
									</g>
								</g>
								<g>
									<g>
										<path style="fill-rule:evenodd;clip-rule:evenodd;stroke:#FFFFFF;stroke-width:1.5;stroke-miterlimit:10;" d="
											M352.412,223.361c-5.124,5.124-10.157,8.402-11.24,7.319c-1.083-1.084,2.192-6.118,7.317-11.242
											c5.125-5.125,10.159-8.4,11.241-7.317C360.813,213.203,357.537,218.236,352.412,223.361z"/>
									</g>
								</g>
								<g>
									<g>
										<path style="fill-rule:evenodd;clip-rule:evenodd;fill:none;stroke:#FFFFFF;stroke-width:1.5;stroke-miterlimit:10;" d="
											M356.618,212.992c0.85,0.85-1.723,4.803-5.747,8.828c-4.025,4.024-7.979,6.598-8.828,5.748"/>
									</g>
								</g>
							</g>
							<path style="fill-rule:evenodd;clip-rule:evenodd;stroke:#FFFFFF;stroke-width:1.5;stroke-miterlimit:10;" d="
								M353.103,219.523l98.628,98.627c1.227,1.227-3.212,5.665-4.438,4.439l-98.629-98.627
								C347.439,222.737,351.878,218.297,353.103,219.523z"/>
						</g>
					</g>
				</g>
			</g>
		</g>
	</g>
</g>
</svg>
